<svg
   id="logo"
   width="167.96797mm"
   height="132.07173mm"
   viewBox="0 0 167.96797 132.07173"
   version="1.1"
   inkscape:version="1.1.2 (08b2f3d93c, 2022-04-05)"
   sodipodi:docname="logo.svg"
   xmlns:inkscape="http://www.inkscape.org/namespaces/inkscape"
   xmlns:sodipodi="http://sodipodi.sourceforge.net/DTD/sodipodi-0.dtd"
   xmlns="http://www.w3.org/2000/svg"
   xmlns:svg="http://www.w3.org/2000/svg">
  <defs
     id="defs2291" />
  <g
     inkscape:label="Layer 1"
     inkscape:groupmode="layer"
     id="layer1"
     transform="translate(-21.123327,-7.2961899)">
    <g
       id="g366"
       transform="matrix(1.0583333,0,0,-1.0583333,44.709343,90.546803)">
      <path
         d="m 0,0 c 1.035,0.175 1.554,0.292 2.595,0.571 5.282,1.415 5.687,4.12 3.924,7.148 -2.584,4.441 -4.384,6.527 -7.507,11.371 -1.886,2.926 -3.882,4.751 -9.638,3.846 -1.1,-0.173 -1.65,-0.257 -2.75,-0.416 C -8.003,13.06 -4.388,9.148 0,0 m -22.286,24.906 c 4.148,0.743 6.222,1.114 10.369,1.856 11.07,1.982 14.865,-1.85 18.135,-6.476 2.914,-4.123 4.618,-5.799 6.934,-9.378 2.283,-3.53 1.798,-10.194 -8.771,-13.631 -3.58,-1.164 -5.36,-1.468 -8.833,-0.793 -5.724,9.653 -11.74,19 -17.834,28.422"
                  id="path368" />
    </g>
    <g
       id="g370"
       transform="matrix(1.0583333,0,0,-1.0583333,77.378192,70.200983)">
      <path
         d="M 0,0 C -4.392,2.611 -9.241,5.959 -11.411,8.867 -11.514,8.849 -11.566,8.84 -11.669,8.823 -10.631,6.501 -7.8,1.505 -6.308,-1.622 -3.765,-0.847 -2.501,-0.5 0,0 m -5.403,-4.015 c 0.612,-2.283 0.659,-3.446 -0.437,-6.372 -2.428,-1.433 -3.659,-2.247 -6.131,-3.828 2.601,11.709 -4.848,11.816 -6.071,26.182 3.936,0.704 5.903,1.056 9.839,1.761 C -3.112,8.231 8.093,1.576 10.485,-5.865 8.265,-5.311 7.117,-5.353 4.77,-5.813 5.307,-3.805 4.548,-3.144 2.453,-1.648 -0.647,-2.3 -2.223,-2.829 -5.403,-4.015"
                  id="path372" />
    </g>
    <g
       id="g374"
       transform="matrix(1.0583333,0,0,-1.0583333,91.653092,77.696413)">
      <path
         d="m 0,0 c 7.297,8.586 -6.532,5.607 -8.88,23.109 3.267,0.636 4.96,1.135 8.415,2.336 C 2.588,19.201 15.403,8.9 16.241,7.512 c 0.038,0.015 0.057,0.023 0.095,0.039 -0.723,3.109 -2.598,6.218 -4.436,11.145 -1.342,3.596 -2.03,5.596 -2.177,10.872 2.861,1.286 4.308,1.976 7.212,3.374 1.5,-8.384 7.072,-22.112 3.987,-30.799 C 17.775,0.891 16.224,0.343 13.278,-0.398 13.606,3.669 1.388,14.27 -0.115,15.791 -0.145,15.782 -0.16,15.778 -0.19,15.769 1.866,12.267 4.848,9.128 6.079,5.514 6.922,3.037 7.001,1.885 4.84,-1.3 2.744,-1.123 1.763,-0.886 0,0"
                  id="path376" />
    </g>
    <g
       id="g378"
       transform="matrix(1.0583333,0,0,-1.0583333,119.39825,70.249563)">
      <path
         d="M 0,0 C 4.845,10.453 8.283,20.835 12.313,31.623 6.438,28.959 3.399,27.319 -2.615,24.197 c -0.209,1.801 -0.271,2.756 -0.236,4.829 9.592,4.66 14.481,7.219 23.574,9.979 C 20.556,37.582 20.511,36.903 20.47,35.585 16.039,25.566 12.417,15.367 8.219,5.247 c 5.905,3.13 8.864,4.815 14.105,7.112 C 21.912,10.469 21.669,9.482 21.044,7.386 13.025,3.994 8.168,1.033 -0.822,-2.994 -0.387,-1.742 -0.228,-1.147 0,0"
                  id="path380" />
    </g>
    <g
       id="g382"
       transform="matrix(1.0583333,0,0,-1.0583333,160.05709,45.022386)">
      <path
         d="m 0,0 c -0.63,6.1 -1.379,10.65 -1.366,13.769 -0.102,0.003 -0.153,0.004 -0.255,0.006 C -2.233,11.417 -4.269,5.459 -5.346,0.648 -3.095,0.603 -2.036,0.458 0,0 m -6.164,-3.137 c -0.774,-3.694 -1.15,-5.671 -2.315,-10.466 -2.199,-0.268 -3.284,-0.691 -5.718,-1.586 2.223,10.292 3.446,23.127 8.526,32.612 4.179,0.297 6.117,0.249 9.833,-0.021 0.15,-11.798 1.612,-23.36 0.372,-35.172 -1.636,1.312 -2.474,1.884 -4.264,2.741 0.324,4.868 0.271,7.006 0,10.975 -2.41,0.71 -3.676,0.925 -6.434,0.917"
                  id="path384" />
    </g>
    <g
       id="g386"
       transform="matrix(1.0583333,0,0,-1.0583333,58.054502,120.81471)">
      <path
         d="m 0,0 c 0.437,-0.725 0.656,-1.088 1.09,-1.815 1.494,-2.497 3.091,-3.863 5.037,-3.254 1.993,0.624 1.748,2.672 0.278,5.23 -1.959,3.407 -3.446,3.822 -8.313,5.565 -4.913,1.759 -7.634,4.348 -10.314,8.701 -2.352,3.82 -3.214,5.163 3.699,7.165 6.871,1.991 8.722,0.946 10.054,-2.512 0.231,-0.601 0.354,-0.903 0.612,-1.513 -1.823,-1.32 -2.736,-1.932 -4.548,-2.858 -0.274,0.544 -0.407,0.815 -0.664,1.354 -1.034,2.161 -2.036,3.046 -4.198,2.36 -2.14,-0.679 -1.951,-1.966 -0.805,-3.996 1.286,-2.277 2.422,-3.529 6.453,-4.276 6.542,-1.226 9.076,-1.71 11.955,-7.013 2.439,-4.494 2.878,-9.966 -2.429,-11.678 -5.188,-1.675 -8.55,3.01 -10.968,7.129 -0.43,0.733 -0.645,1.098 -1.075,1.826 C -2.499,-0.114 -1.67,-0.167 0,0"
                  id="path388" />
    </g>
    <g
       id="g390"
       transform="matrix(1.0583333,0,0,-1.0583333,80.428512,100.07847)">
      <path
         d="m 0,0 c -2.721,-1.172 -4.122,-2.176 -6.946,-4.235 2.247,-4.822 3.66,-7.307 5.663,-11.919 3.151,1.957 4.723,2.924 7.813,3.944 0.453,-1.785 0.64,-2.658 0.86,-4.335 -4.419,-1.641 -6.662,-3.361 -11.127,-6.16 -4.729,9.768 -11.742,20.731 -12.892,31.809 5.936,4.446 8.904,7.3 14.389,9.326 -0.624,-1.453 -0.787,-2.227 -0.906,-3.836 -3.186,-1.294 -4.855,-2.569 -8.239,-5.186 0.304,-3.525 0.972,-5.454 2.558,-9.362 2.869,2.199 4.289,3.27 7.034,4.501 C -1.161,2.746 -0.785,1.83 0,0"
                  id="path392" />
    </g>
    <g
       id="g394"
       transform="matrix(1.0583333,0,0,-1.0583333,105.00957,118.20507)">
      <path
         d="m 0,0 c -1.232,0.208 -1.848,0.313 -3.078,0.526 -0.213,0.532 -0.625,1.813 -0.864,2.512 -0.14,-2.099 -1.724,-2.455 -3.612,-2.117 -4.178,0.748 -6.295,3.248 -9.014,9.279 -3.171,7.036 -5.641,10.996 -6.679,17.743 -0.88,5.719 2.955,8.62 9.451,6.34 7.781,-2.731 7.954,-4.434 7.894,-8.169 -0.006,-0.381 -0.005,-0.573 0.006,-0.961 -2.571,-0.212 -3.82,-0.229 -6.187,0.009 -0.044,0.451 -0.059,0.675 -0.075,1.117 -0.065,1.9 -0.082,3.647 -3.38,4.672 -2.561,0.795 -3.951,0.297 -3.677,-2.869 0.598,-6.908 3.532,-11.152 6.924,-18.407 1.451,-3.105 2.746,-4.923 4.626,-5.274 2.308,-0.43 2.095,1.695 0.5,5.599 -0.854,2.091 -1.311,3.161 -2.124,5.283 -1.478,0.149 -2.2,0.261 -3.595,0.586 -0.728,1.648 -1.079,2.476 -1.671,4.106 3.54,-0.894 5.494,-0.963 9.552,-0.734 C -3.415,11.466 -1.173,7.028 0,0"
                  id="path396" />
    </g>
    <g
       id="g398"
       transform="matrix(1.0583333,0,0,-1.0583333,112.45379,95.368463)">
      <path
         d="m 0,0 c 0.904,0.201 1.358,0.305 2.265,0.519 4.123,0.974 5.65,3.208 6.615,7.696 0.137,0.642 0.209,0.96 0.355,1.592 0.79,3.405 0.324,4.832 -4.768,3.067 C 3.358,12.49 2.803,12.302 1.698,11.94 0.421,7.559 0.187,5.08 0,0 m -0.057,-4.477 c 0.059,-7.372 0.518,-11.307 0.769,-18.377 -1.575,0.255 -2.362,0.383 -3.936,0.642 -1.7,11.446 -5.578,24.12 -1.006,35.387 4.191,1.189 6.388,2.029 10.747,3.775 8.362,3.349 11.962,3.15 9.802,-4.529 -0.205,-0.73 -0.307,-1.098 -0.51,-1.839 -1.79,-6.557 -4.822,-9.509 -6.985,-10.761 2.536,-0.522 3.302,-2.346 2.187,-8.938 -0.7,-4.141 -1.668,-12.063 -1.567,-15.143 -1.524,0.246 -2.287,0.368 -3.812,0.613 -0.292,2.79 0.147,10.24 0.41,13.474 0.46,5.656 -0.021,6.86 -4.074,6.076 -0.811,-0.157 -1.217,-0.234 -2.025,-0.38"
                  id="path400" />
    </g>
    <g
       id="g402"
       transform="matrix(1.0583333,0,0,-1.0583333,144.46783,95.593783)">
      <path
         d="m 0,0 c -2.525,0.906 -3.536,1.022 -6.987,0.672 -2.497,-7.371 -3.779,-11.215 -5.326,-18.969 3.121,-0.215 4.415,-0.427 7.572,-1.579 -0.714,-2.813 -1.01,-4.241 -1.425,-7.127 -4.922,1.678 -6.83,1.685 -11.172,2.394 2.629,17.068 7.639,33.045 12.501,49.556 7.364,2.735 10.408,3.746 15.245,2.451 C 9.793,24.96 9.413,23.725 8.572,21.223 5.644,22.181 4.3,22.207 0.018,21.284 -1.585,15.912 -2.656,13.06 -4.732,7.167 -1.013,7.678 0.032,7.573 2.595,6.656 1.548,4.027 1.016,2.696 0,0"
                  id="path404" />
    </g>
    <g
       id="g406"
       transform="matrix(1.0583333,0,0,-1.0583333,160.3402,77.182493)">
      <path
         d="m 0,0 c -1.771,1.515 -2.677,2.168 -4.608,3.094 0.871,2.522 1.268,3.771 1.919,6.25 C 3.008,6.917 5.102,3.799 10.045,-2.217 9.279,-4.779 8.83,-6.024 7.882,-8.478 6.159,-6.405 5.321,-5.381 3.61,-3.528 -2.45,-18.594 -9.674,-33.031 -8.564,-49.748 c -2.003,0.941 -3.002,1.409 -4.959,2.28 C -12.287,-30.077 -6.229,-16.038 0,0"
                  id="path408" />
    </g>
    <g
       id="g410"
       transform="matrix(1.0583333,0,0,-1.0583333,167.63116,116.63281)">
      <path
         d="M 0,0 C 1.663,8.711 5.246,16.355 7.044,21.613 6.984,21.678 6.954,21.71 6.895,21.775 5.172,18.147 -0.737,9.672 -3.594,2.823 -2.157,1.639 -1.438,1.061 0,0 m -5.403,-2.544 c -1.322,-5.212 -1.594,-8.002 -0.464,-14.403 -1.986,0.89 -3.001,1.367 -5.034,2.325 C -9.708,3.804 -1.393,14.959 6.561,30.942 8.728,28.38 9.853,27.075 12.35,24.71 7.124,7.222 0.954,-3.651 6.959,-21.482 c -1.624,0.304 -2.498,0.546 -4.323,1.143 -3.048,6.466 -3.443,9.234 -3.324,14.681 -1.86,1.129 -2.807,1.776 -4.715,3.114"
                  id="path412" />
    </g>
    <g
       id="g1074"
       transform="matrix(1.0583333,0,0,-1.0583333,167.38891,13.898073)">
      <path
         d="m 0,0 c 0,-3.445 -2.793,-6.238 -6.238,-6.238 -3.445,0 -6.238,2.793 -6.238,6.238 0,3.445 2.793,6.238 6.238,6.238 C -2.793,6.238 0,3.445 0,0"
                  id="path1076" />
    </g>
    <g
       id="g1078"
       transform="matrix(1.0583333,0,0,-1.0583333,189.0913,80.834373)">
      <path
         d="m 0,0 c 0,-2.94 -2.384,-5.324 -5.324,-5.324 -2.941,0 -5.325,2.384 -5.325,5.324 0,2.941 2.384,5.324 5.325,5.324 C -2.384,5.324 0,2.941 0,0"
                  id="path1080" />
    </g>
    <g
       id="g1082"
       transform="matrix(1.0583333,0,0,-1.0583333,63.855332,46.967709)">
      <path
         d="m 0,0 c 0,-2.94 -2.384,-5.324 -5.324,-5.324 -2.941,0 -5.325,2.384 -5.325,5.324 0,2.941 2.384,5.324 5.325,5.324 C -2.384,5.324 0,2.941 0,0"
                  id="path1084" />
    </g>
  </g>
</svg>
